PathFileType	4	(X/Y/Z)	Patient4_TMGait_0pt8_01_right_28.trc.trc
DataRate	CameraRate	NumFrames	NumMarkers	Units	OrigDataRate	OrigDataStartFrame	OrigNumFrames
88.607594936709	88.607594936709	4	33	mm	88.607594936709	71	       141
Frame#	Time	Sacral			L.Shoulder			Chest			R.Shoulder			Neck			R.ASIS			L.ASIS			R.Thigh.Superior			R.Thigh.Lateral			R.Thigh.Inferior			R.Patella			L.Thigh.Superior			L.Thigh.Lateral			L.Thigh.Inferior			L.Patella			L.Shank.Superior			L.Shank.Lateral			L.Shank.Inferior			R.Shank.Superior			R.Shank.Lateral			R.Shank.Inferior			R.Heel			R.Midfoot.Superior			R.Midfoot.Lateral			R.Toe			L.Heel			L.Midfoot.Lateral			L.Midfoot.Superior			L.Toe			L.Elbow			L.Wrist			R.Elbow			R.Wrist			
		X1	Y1	Z1	X2	Y2	Z2	X3	Y3	Z3	X4	Y4	Z4	X5	Y5	Z5	X6	Y6	Z6	X7	Y7	Z7	X8	Y8	Z8	X9	Y9	Z9	X10	Y10	Z10	X11	Y11	Z11	X12	Y12	Z12	X13	Y13	Z13	X14	Y14	Z14	X15	Y15	Z15	X16	Y16	Z16	X17	Y17	Z17	X18	Y18	Z18	X19	Y19	Z19	X20	Y20	Z20	X21	Y21	Z21	X22	Y22	Z22	X23	Y23	Z23	X24	Y24	Z24	X25	Y25	Z25	X26	Y26	Z26	X27	Y27	Z27	X28	Y28	Z28	X29	Y29	Z29	X30	Y30	Z30	X31	Y31	Z31	X32	Y32	Z32	X33	Y33	Z33	

71	32.060000000000	860.892128642664	1000.210180595431	551.279990488098	1027.675554818305	1425.357412335158	370.976374833636	1141.977898421460	1350.567178895386	522.427673142433	1075.015429162874	1421.703002930085	703.705313400511	1026.064020445645	1483.854246266568	529.481504609118	1086.012298707714	932.184663916363	663.506263354713	1068.108654142287	947.196544527577	387.321820215587	1077.099060314536	718.174198411074	636.443349383308	966.719937318030	627.829880376180	694.809507516106	1026.409019778791	560.944277779590	616.213347975351	1004.324907653182	476.972746010538	619.843505582505	1138.559752780691	766.212341021060	415.047032623007	1091.105891336015	639.645971715059	328.426705944802	1197.680171838343	581.870544952655	385.159654056576	1226.450014199731	520.024269138386	379.163622658550	1213.116474700539	448.284483236541	367.658279158386	1152.349165033108	315.477425620771	319.108856065241	1248.558945409518	221.917189949594	367.212687084382	963.581666498409	393.261480474913	624.462008028312	876.015739485517	300.129926749377	683.223880407720	905.685485456597	201.812311162478	618.298017111994	753.522281342057	44.112003481085	581.929568389382	926.493988805683	97.373112274797	620.791286702743	835.728047340118	37.032267778815	657.043029953793	1044.201994397339	42.263673313973	649.895484278910	1176.399601666082	42.846164624728	407.113310220603	1247.942583085353	47.386729103447	324.904425360529	1318.795204349861	124.756936760861	343.504656424057	1451.812834359886	94.258999066301	314.066551274554	882.363971808517	1106.189233211088	272.158646343731	826.244901674563	853.408964139375	265.116538628688	1224.283207415119	1111.270677345136	793.212880948693	1444.242862432294	1188.599543086561	696.020145096872	
72	32.071285714286	861.033947658522	998.814820413235	548.895125022736	1027.028654745313	1423.943164112513	368.788800154933	1141.445642576674	1349.464783251919	520.304555733913	1074.171213324619	1420.674535551686	701.418422672908	1025.151933088707	1482.454709360254	527.230994446298	1085.994477771354	930.427555991378	661.600659978896	1068.602020744030	945.457996903850	385.409547259924	1076.085723702420	716.206035429614	635.066803130782	964.893539031838	626.637565632362	693.339473356927	1024.140031776938	559.073115075684	614.991296366739	1001.044592516872	475.069173692578	618.450616170757	1139.772608095431	764.875040900660	414.377301108998	1091.967938189952	637.660900110294	328.915004431370	1198.426806875674	580.348214823368	385.849520907984	1226.485428885962	516.964247262776	380.257877073103	1211.801601152446	444.467333660029	369.037447042006	1147.598335452894	312.967187496162	321.197589536155	1241.052687705985	217.193547541209	370.139417925102	959.158834664542	391.779992418510	623.267944064010	870.506140811799	300.043180424730	682.485106820063	898.499045599685	201.191799364334	617.709839382118	744.579102892240	44.587243257370	581.947560935184	917.564677776225	97.200690640144	620.543433996434	826.751431026903	37.212996134199	656.972329213492	1035.223537584026	41.781561037515	649.987645447821	1163.579070872695	41.021587143883	410.128054026668	1235.178868120743	44.034026276281	327.806563497829	1308.537175149513	118.539370269879	347.369103832582	1440.635021257429	83.858669992751	317.471446227867	879.480259577178	1106.139193479621	270.580855295922	820.637578177831	853.997081682247	263.536172327718	1227.723070211750	1113.402355980035	790.814850415440	1440.947322216837	1203.911172996448	692.115357879510	
73	32.082571428571	861.246626701493	997.424684005233	546.400851789037	1026.486977432242	1422.547853168985	366.489851551825	1141.000290105042	1348.412750757861	518.097469007099	1073.356274950145	1419.668332591371	699.064337143493	1024.353287028272	1481.111634157265	524.862121113014	1086.097653157025	928.669097201912	659.598377098039	1069.195758276704	943.852412645547	383.467698199466	1075.334489041462	714.272177058834	633.591869236210	963.307816698306	625.478291656360	691.703563999583	1022.171044475724	557.204101896941	613.673896487846	998.043450148954	473.125853897147	616.901477542902	1141.083825922915	763.488274431282	413.532215649326	1092.752618429229	635.833293327088	329.205012556299	1199.153840894504	578.886354307406	386.404789551259	1226.398445481607	513.982218137361	381.303922374942	1210.438753409724	440.838925925438	370.263161128426	1143.004392484210	310.735513112552	322.800605677432	1233.523454487674	212.766444890454	372.758157290856	954.989233004271	390.338444788616	621.962845715662	865.183066834280	300.081854143392	681.653935947231	891.432383361331	200.671055978123	617.082451443775	735.673344104389	45.297943695132	581.994879560840	908.718213558552	97.101152200133	620.336666403157	817.814281553187	37.510826738725	656.904702585288	1026.273829999782	41.251397287912	650.090647695903	1150.591729459292	39.510777465769	412.408686209347	1222.476106096597	41.163253550633	330.191064751516	1298.186835999567	112.766544989251	351.062204165882	1429.440083360725	74.064139493910	321.062382901748	877.397649449679	1105.715267401747	268.818083955904	816.426270347906	854.091458551153	261.717262913091	1230.806784646838	1115.330043526872	788.667294984457	1436.918516167290	1217.802689977280	688.603787618677	
74	32.093857142857	861.514745516689	996.130517343271	543.832927029914	1026.059927969405	1421.238792078956	364.103842480694	1140.653600078764	1347.472403623359	515.824603697056	1072.607016530813	1418.752247423677	696.668214659820	1023.685252039269	1479.895486918169	522.399738703221	1086.309511474075	926.971505127324	657.474856469038	1069.824247521873	942.469569937815	381.476308657770	1074.774511897188	712.439025545680	631.965508325398	961.905679258102	624.425277053022	689.895030806016	1020.434146841231	555.411590552109	612.242352912276	995.281689862839	471.202352740890	615.217450428260	1142.407626484016	762.154296781711	412.487156515604	1093.457048520546	634.289510398879	329.205108475937	1199.846850564794	577.597846955139	386.744427302266	1226.204633738046	511.262927591733	382.187579058989	1209.092322942882	437.591922691461	371.232872187774	1138.773413819931	308.911174256123	323.820759621027	1226.257426087681	208.871923830866	374.942829075862	951.029859827388	389.010054916666	620.574572491640	860.011977084082	300.308624333775	680.749520248371	884.476139855207	200.315813782455	616.448099800677	726.811516767266	46.316963637441	582.091796844753	899.975567088635	97.095645816142	620.194390607122	808.924047560422	37.958412421280	656.859308419141	1017.354095241474	40.693867768633	650.199685596946	1137.982549568942	38.390164996333	413.982842351876	1210.289641970931	38.909481281084	332.011137488596	1288.068521941504	107.769651956219	354.363436010013	1418.580254873489	65.465700321633	324.502138301058	876.165476016797	1104.950568355218	266.859759085839	813.669465885284	853.701727485095	259.682172025157	1233.464217372230	1117.011893285102	786.780917930814	1432.293109382443	1230.216340861774	685.474904156664	
